<?xml version="1.0"?>
<svg xmlns="http://www.w3.org/2000/svg" viewBox="0 0 512 512" width="512" height="512"><g id="Filter"><path d="M447.009,12.143A8,8,0,0,0,440,8H72a8,8,0,0,0-6.759,12.28L216,258.32V448a8,8,0,0,0,3.2,6.4l64,48A8,8,0,0,0,296,496V258.32L446.759,20.28A8,8,0,0,0,447.009,12.143ZM281.241,251.72A8,8,0,0,0,280,256V480l-48-36V256a8,8,0,0,0-1.241-4.28L86.536,24H425.464Z"/><path d="M128,56h80a8,8,0,0,0,0-16H128a8,8,0,0,0,0,16Z"/><path d="M232,56h8a8,8,0,0,0,0-16h-8a8,8,0,0,0,0,16Z"/></g></svg>
